<svg width="14" height="19" viewBox="0 0 14 19" fill="none" xmlns="http://www.w3.org/2000/svg">
<path d="M0.64 10.8C0.24 10.4533 0.04 10.04 0.04 9.56C0.04 9.08 0.266667 8.69333 0.72 8.4C4.42667 5.33333 7.84 2.77333 10.96 0.719999C11.2267 0.586666 11.52 0.52 11.84 0.52C12.1867 0.52 12.4933 0.666666 12.76 0.959999C13.0533 1.25333 13.2 1.58667 13.2 1.96C13.2 2.33333 13.0933 2.66667 12.88 2.96C12.6133 3.14667 9.57333 5.36 3.76 9.6C4.4 10.08 5.82667 11.0667 8.04 12.56C10.28 14.0533 11.92 15.2267 12.96 16.08C13.1733 16.4267 13.28 16.76 13.28 17.08C13.28 17.3733 13.1067 17.68 12.76 18C12.4133 18.2933 12.0533 18.44 11.68 18.44C11.3333 18.44 11.1067 18.4 11 18.32C9.88 17.44 8.21333 16.24 6 14.72C3.81333 13.2 2.02667 11.8933 0.64 10.8Z" fill="white"/>
</svg>
