<svg width="43" height="7" viewBox="0 0 43 7" fill="none" xmlns="http://www.w3.org/2000/svg">
<mask id="path-1-outside-1_60_424" maskUnits="userSpaceOnUse" x="0" y="0" width="43" height="7" fill="black">
<rect fill="white" width="43" height="7"/>
<path d="M3.28 1.2C3.86667 1.2 4.37333 1.41333 4.8 1.84C5.22667 2.26667 5.48 2.85333 5.56 3.6C5.56 4.18667 5.34667 4.73333 4.92 5.24C4.49333 5.72 3.98667 5.96 3.4 5.96C2.84 5.96 2.33333 5.81333 1.88 5.52C1.42667 5.2 1.2 4.72 1.2 4.08C1.2 3.44 1.4 2.8 1.8 2.16C2.22667 1.52 2.72 1.2 3.28 1.2Z"/>
<path d="M21.0534 1.2C21.6401 1.2 22.1468 1.41333 22.5734 1.84C23.0001 2.26667 23.2534 2.85333 23.3334 3.6C23.3334 4.18667 23.1201 4.73333 22.6934 5.24C22.2668 5.72 21.7601 5.96 21.1734 5.96C20.6134 5.96 20.1068 5.81333 19.6534 5.52C19.2001 5.2 18.9734 4.72 18.9734 4.08C18.9734 3.44 19.1734 2.8 19.5734 2.16C20.0001 1.52 20.4934 1.2 21.0534 1.2ZM38.8269 1.2C39.4135 1.2 39.9202 1.41333 40.3469 1.84C40.7735 2.26667 41.0269 2.85333 41.1069 3.6C41.1069 4.18667 40.8935 4.73333 40.4669 5.24C40.0402 5.72 39.5335 5.96 38.9469 5.96C38.3869 5.96 37.8802 5.81333 37.4269 5.52C36.9735 5.2 36.7469 4.72 36.7469 4.08C36.7469 3.44 36.9469 2.8 37.3469 2.16C37.7735 1.52 38.2669 1.2 38.8269 1.2Z"/>
</mask>
<path d="M3.28 1.2C3.86667 1.2 4.37333 1.41333 4.8 1.84C5.22667 2.26667 5.48 2.85333 5.56 3.6C5.56 4.18667 5.34667 4.73333 4.92 5.24C4.49333 5.72 3.98667 5.96 3.4 5.96C2.84 5.96 2.33333 5.81333 1.88 5.52C1.42667 5.2 1.2 4.72 1.2 4.08C1.2 3.44 1.4 2.8 1.8 2.16C2.22667 1.52 2.72 1.2 3.28 1.2Z" fill="#FFD06F"/>
<path d="M21.0534 1.2C21.6401 1.2 22.1468 1.41333 22.5734 1.84C23.0001 2.26667 23.2534 2.85333 23.3334 3.6C23.3334 4.18667 23.1201 4.73333 22.6934 5.24C22.2668 5.72 21.7601 5.96 21.1734 5.96C20.6134 5.96 20.1068 5.81333 19.6534 5.52C19.2001 5.2 18.9734 4.72 18.9734 4.08C18.9734 3.44 19.1734 2.8 19.5734 2.16C20.0001 1.52 20.4934 1.2 21.0534 1.2ZM38.8269 1.2C39.4135 1.2 39.9202 1.41333 40.3469 1.84C40.7735 2.26667 41.0269 2.85333 41.1069 3.6C41.1069 4.18667 40.8935 4.73333 40.4669 5.24C40.0402 5.72 39.5335 5.96 38.9469 5.96C38.3869 5.96 37.8802 5.81333 37.4269 5.52C36.9735 5.2 36.7469 4.72 36.7469 4.08C36.7469 3.44 36.9469 2.8 37.3469 2.16C37.7735 1.52 38.2669 1.2 38.8269 1.2Z" fill="white"/>
<path d="M4.8 1.84L4.09289 2.54711L4.8 1.84ZM5.56 3.6H6.56V3.54658L6.55431 3.49347L5.56 3.6ZM4.92 5.24L5.66741 5.90437L5.6763 5.89437L5.68491 5.88414L4.92 5.24ZM1.88 5.52L1.30332 6.33697L1.3198 6.34861L1.33675 6.35957L1.88 5.52ZM1.8 2.16L0.96795 1.6053L0.959794 1.61753L0.952002 1.63L1.8 2.16ZM3.28 1.2V2.2C3.59311 2.2 3.84778 2.30199 4.09289 2.54711L4.8 1.84L5.50711 1.13289C4.89889 0.524673 4.14023 0.200001 3.28 0.200001V1.2ZM4.8 1.84L4.09289 2.54711C4.32172 2.77593 4.50392 3.13002 4.56569 3.70653L5.56 3.6L6.55431 3.49347C6.45608 2.57665 6.13162 1.7574 5.50711 1.13289L4.8 1.84ZM5.56 3.6H4.56C4.56 3.92051 4.45076 4.24475 4.15509 4.59586L4.92 5.24L5.68491 5.88414C6.24257 5.22192 6.56 4.45282 6.56 3.6H5.56ZM4.92 5.24L4.17259 4.57564C3.91554 4.86482 3.67203 4.96 3.4 4.96V5.96V6.96C4.3013 6.96 5.07113 6.57518 5.66741 5.90437L4.92 5.24ZM3.4 5.96V4.96C3.02521 4.96 2.70852 4.86502 2.42325 4.68043L1.88 5.52L1.33675 6.35957C1.95814 6.76165 2.65479 6.96 3.4 6.96V5.96ZM1.88 5.52L2.45668 4.70303C2.31244 4.60121 2.2 4.45243 2.2 4.08H1.2H0.2C0.2 4.98757 0.540898 5.79879 1.30332 6.33697L1.88 5.52ZM1.2 4.08H2.2C2.2 3.65879 2.32928 3.19995 2.648 2.69L1.8 2.16L0.952002 1.63C0.47072 2.40005 0.2 3.22121 0.2 4.08H1.2ZM1.8 2.16L2.63205 2.7147C2.94919 2.239 3.17131 2.2 3.28 2.2V1.2V0.200001C2.26869 0.200001 1.50415 0.801003 0.96795 1.6053L1.8 2.16ZM22.5734 1.84L21.8663 2.54711L22.5734 1.84ZM23.3334 3.6H24.3334V3.54658L24.3277 3.49347L23.3334 3.6ZM22.6934 5.24L23.4408 5.90437L23.4497 5.89437L23.4583 5.88414L22.6934 5.24ZM19.6534 5.52L19.0768 6.33697L19.0932 6.34861L19.1102 6.35957L19.6534 5.52ZM19.5734 2.16L18.7414 1.6053L18.7332 1.61753L18.7254 1.63L19.5734 2.16ZM21.0534 1.2V2.2C21.3665 2.2 21.6212 2.30199 21.8663 2.54711L22.5734 1.84L23.2805 1.13289C22.6723 0.524673 21.9137 0.200001 21.0534 0.200001V1.2ZM22.5734 1.84L21.8663 2.54711C22.0952 2.77593 22.2774 3.13002 22.3391 3.70653L23.3334 3.6L24.3277 3.49347C24.2295 2.57665 23.9051 1.7574 23.2805 1.13289L22.5734 1.84ZM23.3334 3.6H22.3334C22.3334 3.92051 22.2242 4.24475 21.9285 4.59586L22.6934 5.24L23.4583 5.88414C24.016 5.22192 24.3334 4.45282 24.3334 3.6H23.3334ZM22.6934 5.24L21.946 4.57564C21.689 4.86482 21.4455 4.96 21.1734 4.96V5.96V6.96C22.0747 6.96 22.8446 6.57518 23.4408 5.90437L22.6934 5.24ZM21.1734 5.96V4.96C20.7987 4.96 20.482 4.86502 20.1967 4.68043L19.6534 5.52L19.1102 6.35957C19.7316 6.76165 20.4282 6.96 21.1734 6.96V5.96ZM19.6534 5.52L20.2301 4.70303C20.0859 4.60121 19.9734 4.45243 19.9734 4.08H18.9734H17.9734C17.9734 4.98757 18.3143 5.79879 19.0768 6.33697L19.6534 5.52ZM18.9734 4.08H19.9734C19.9734 3.65879 20.1027 3.19995 20.4214 2.69L19.5734 2.16L18.7254 1.63C18.2442 2.40005 17.9734 3.22121 17.9734 4.08H18.9734ZM19.5734 2.16L20.4055 2.7147C20.7226 2.239 20.9447 2.2 21.0534 2.2V1.2V0.200001C20.0421 0.200001 19.2776 0.801003 18.7414 1.6053L19.5734 2.16ZM40.3469 1.84L39.6398 2.54711L40.3469 1.84ZM41.1069 3.6H42.1069V3.54658L42.1012 3.49347L41.1069 3.6ZM40.4669 5.24L41.2143 5.90437L41.2232 5.89437L41.2318 5.88414L40.4669 5.24ZM37.4269 5.52L36.8502 6.33697L36.8667 6.34861L36.8836 6.35957L37.4269 5.52ZM37.3469 2.16L36.5148 1.6053L36.5067 1.61753L36.4989 1.63L37.3469 2.16ZM38.8269 1.2V2.2C39.14 2.2 39.3947 2.30199 39.6398 2.54711L40.3469 1.84L41.054 1.13289C40.4458 0.524673 39.6871 0.200001 38.8269 0.200001V1.2ZM40.3469 1.84L39.6398 2.54711C39.8686 2.77593 40.0508 3.13002 40.1126 3.70653L41.1069 3.6L42.1012 3.49347C42.003 2.57665 41.6785 1.7574 41.054 1.13289L40.3469 1.84ZM41.1069 3.6H40.1069C40.1069 3.92051 39.9976 4.24475 39.702 4.59586L40.4669 5.24L41.2318 5.88414C41.7894 5.22192 42.1069 4.45282 42.1069 3.6H41.1069ZM40.4669 5.24L39.7195 4.57564C39.4624 4.86482 39.2189 4.96 38.9469 4.96V5.96V6.96C39.8482 6.96 40.618 6.57518 41.2143 5.90437L40.4669 5.24ZM38.9469 5.96V4.96C38.5721 4.96 38.2554 4.86502 37.9701 4.68043L37.4269 5.52L36.8836 6.35957C37.505 6.76165 38.2017 6.96 38.9469 6.96V5.96ZM37.4269 5.52L38.0036 4.70303C37.8593 4.60121 37.7469 4.45243 37.7469 4.08H36.7469H35.7469C35.7469 4.98757 36.0878 5.79879 36.8502 6.33697L37.4269 5.52ZM36.7469 4.08H37.7469C37.7469 3.65879 37.8762 3.19995 38.1949 2.69L37.3469 2.16L36.4989 1.63C36.0176 2.40005 35.7469 3.22121 35.7469 4.08H36.7469ZM37.3469 2.16L38.1789 2.7147C38.4961 2.239 38.7182 2.2 38.8269 2.2V1.2V0.200001C37.8156 0.200001 37.051 0.801003 36.5148 1.6053L37.3469 2.16Z" fill="black" mask="url(#path-1-outside-1_60_424)"/>
</svg>
