<svg width="15" height="19" viewBox="0 0 15 19" fill="none" xmlns="http://www.w3.org/2000/svg">
<path d="M1.8 0.359999C2.09333 0.359999 2.38667 0.413333 2.68 0.52C2.97333 0.626666 3.32 0.813332 3.72 1.08C4.14667 1.32 4.53333 1.57333 4.88 1.84C5.25333 2.08 5.76 2.42667 6.4 2.88C7.04 3.33333 7.89333 3.92 8.96 4.64C10.0267 5.36 11.4267 6.42667 13.16 7.84C13.7467 8.34667 14.04 8.82667 14.04 9.28C14.04 9.70667 13.8267 10.1467 13.4 10.6C13.16 10.84 12.92 11.08 12.68 11.32C12.44 11.56 11.7867 12.0533 10.72 12.8L9.52 13.64C8.98667 14.0133 8.05333 14.6533 6.72 15.56C5.38667 16.4667 4.16 17.3867 3.04 18.32C2.90667 18.4 2.65333 18.44 2.28 18.44C1.90667 18.44 1.54667 18.28 1.2 17.96C0.88 17.64 0.72 17.2933 0.72 16.92C0.72 16.52 0.8 16.2 0.96 15.96C2.24 15.0267 3.89333 13.8667 5.92 12.48C7.97333 11.0933 9.49333 10.0133 10.48 9.24C9.70667 8.65333 8.49333 7.81333 6.84 6.72C5.18667 5.6 3.30667 4.30667 1.2 2.84C0.853333 2.41333 0.68 2.01333 0.68 1.64C0.68 1.26667 0.786667 0.959999 1 0.719999C1.24 0.479999 1.50667 0.359999 1.8 0.359999Z" fill="white"/>
</svg>
