<svg width="23" height="30" viewBox="0 0 23 30" fill="none" xmlns="http://www.w3.org/2000/svg">
<path d="M2.48 0.175999C2.94933 0.175999 3.41867 0.261332 3.888 0.431999C4.35733 0.602665 4.912 0.901332 5.552 1.328C6.23467 1.712 6.85333 2.11733 7.408 2.544C8.00533 2.928 8.816 3.48267 9.84 4.208C10.864 4.93333 12.2293 5.872 13.936 7.024C15.6427 8.176 17.8827 9.88267 20.656 12.144C21.5947 12.9547 22.064 13.7227 22.064 14.448C22.064 15.1307 21.7227 15.8347 21.04 16.56C20.656 16.944 20.272 17.328 19.888 17.712C19.504 18.096 18.4587 18.8853 16.752 20.08L14.832 21.424C13.9787 22.0213 12.4853 23.0453 10.352 24.496C8.21867 25.9467 6.256 27.4187 4.464 28.912C4.25067 29.04 3.84533 29.104 3.248 29.104C2.65067 29.104 2.07467 28.848 1.52 28.336C1.008 27.824 0.752 27.2693 0.752 26.672C0.752 26.032 0.88 25.52 1.136 25.136C3.184 23.6427 5.82933 21.7867 9.072 19.568C12.3573 17.3493 14.7893 15.6213 16.368 14.384C15.1307 13.4453 13.1893 12.1013 10.544 10.352C7.89867 8.56 4.89067 6.49067 1.52 4.144C0.965334 3.46133 0.688 2.82133 0.688 2.224C0.688 1.62667 0.858667 1.136 1.2 0.751999C1.584 0.367999 2.01067 0.175999 2.48 0.175999Z" fill="black"/>
</svg>
