<svg width="67" height="10" viewBox="0 0 67 10" fill="none" xmlns="http://www.w3.org/2000/svg">
<mask id="path-1-outside-1_10_527" maskUnits="userSpaceOnUse" x="0" y="0" width="67" height="10" fill="black">
<rect fill="white" width="67" height="10"/>
<path d="M4.848 1.32C5.78667 1.32 6.59733 1.66133 7.28 2.344C7.96267 3.02667 8.368 3.96533 8.496 5.16C8.496 6.09867 8.15467 6.97333 7.472 7.784C6.78933 8.552 5.97867 8.936 5.04 8.936C4.144 8.936 3.33333 8.70133 2.608 8.232C1.88267 7.72 1.52 6.952 1.52 5.928C1.52 4.904 1.84 3.88 2.48 2.856C3.16267 1.832 3.952 1.32 4.848 1.32Z"/>
<path d="M33.2855 1.32C34.2242 1.32 35.0348 1.66133 35.7175 2.344C36.4002 3.02667 36.8055 3.96533 36.9335 5.16C36.9335 6.09867 36.5922 6.97333 35.9095 7.784C35.2268 8.552 34.4162 8.936 33.4775 8.936C32.5815 8.936 31.7708 8.70133 31.0455 8.232C30.3202 7.72 29.9575 6.952 29.9575 5.928C29.9575 4.904 30.2775 3.88 30.9175 2.856C31.6002 1.832 32.3895 1.32 33.2855 1.32ZM61.723 1.32C62.6617 1.32 63.4723 1.66133 64.155 2.344C64.8377 3.02667 65.243 3.96533 65.371 5.16C65.371 6.09867 65.0297 6.97333 64.347 7.784C63.6643 8.552 62.8537 8.936 61.915 8.936C61.019 8.936 60.2083 8.70133 59.483 8.232C58.7577 7.72 58.395 6.952 58.395 5.928C58.395 4.904 58.715 3.88 59.355 2.856C60.0377 1.832 60.827 1.32 61.723 1.32Z"/>
</mask>
<path d="M4.848 1.32C5.78667 1.32 6.59733 1.66133 7.28 2.344C7.96267 3.02667 8.368 3.96533 8.496 5.16C8.496 6.09867 8.15467 6.97333 7.472 7.784C6.78933 8.552 5.97867 8.936 5.04 8.936C4.144 8.936 3.33333 8.70133 2.608 8.232C1.88267 7.72 1.52 6.952 1.52 5.928C1.52 4.904 1.84 3.88 2.48 2.856C3.16267 1.832 3.952 1.32 4.848 1.32Z" fill="#FFD06F"/>
<path d="M33.2855 1.32C34.2242 1.32 35.0348 1.66133 35.7175 2.344C36.4002 3.02667 36.8055 3.96533 36.9335 5.16C36.9335 6.09867 36.5922 6.97333 35.9095 7.784C35.2268 8.552 34.4162 8.936 33.4775 8.936C32.5815 8.936 31.7708 8.70133 31.0455 8.232C30.3202 7.72 29.9575 6.952 29.9575 5.928C29.9575 4.904 30.2775 3.88 30.9175 2.856C31.6002 1.832 32.3895 1.32 33.2855 1.32ZM61.723 1.32C62.6617 1.32 63.4723 1.66133 64.155 2.344C64.8377 3.02667 65.243 3.96533 65.371 5.16C65.371 6.09867 65.0297 6.97333 64.347 7.784C63.6643 8.552 62.8537 8.936 61.915 8.936C61.019 8.936 60.2083 8.70133 59.483 8.232C58.7577 7.72 58.395 6.952 58.395 5.928C58.395 4.904 58.715 3.88 59.355 2.856C60.0377 1.832 60.827 1.32 61.723 1.32Z" fill="black"/>
<path d="M7.28 2.344L6.57289 3.05111L7.28 2.344ZM8.496 5.16H9.496V5.10658L9.49031 5.05347L8.496 5.16ZM7.472 7.784L8.21941 8.44836L8.2283 8.43837L8.23691 8.42814L7.472 7.784ZM2.608 8.232L2.03132 9.04897L2.0478 9.06061L2.06475 9.07157L2.608 8.232ZM2.48 2.856L1.64795 2.3013L1.63979 2.31353L1.632 2.326L2.48 2.856ZM4.848 1.32V2.32C5.51311 2.32 6.07178 2.54999 6.57289 3.05111L7.28 2.344L7.98711 1.63689C7.12289 0.772675 6.06023 0.32 4.848 0.32V1.32ZM7.28 2.344L6.57289 3.05111C7.05772 3.53593 7.39192 4.24202 7.50169 5.26653L8.496 5.16L9.49031 5.05347C9.34408 3.68865 8.86762 2.5174 7.98711 1.63689L7.28 2.344ZM8.496 5.16H7.496C7.496 5.83252 7.25876 6.48475 6.70709 7.13986L7.472 7.784L8.23691 8.42814C9.05057 7.46191 9.496 6.36482 9.496 5.16H8.496ZM7.472 7.784L6.72459 7.11964C6.21154 7.69682 5.66403 7.936 5.04 7.936V8.936V9.936C6.2933 9.936 7.36713 9.40718 8.21941 8.44836L7.472 7.784ZM5.04 8.936V7.936C4.32921 7.936 3.70853 7.75302 3.15125 7.39243L2.608 8.232L2.06475 9.07157C2.95814 9.64965 3.95879 9.936 5.04 9.936V8.936ZM2.608 8.232L3.18468 7.41503C2.76844 7.12121 2.52 6.68443 2.52 5.928H1.52H0.52C0.52 7.21957 0.996898 8.31879 2.03132 9.04897L2.608 8.232ZM1.52 5.928H2.52C2.52 5.12279 2.76928 4.27995 3.328 3.386L2.48 2.856L1.632 2.326C0.91072 3.48005 0.52 4.68521 0.52 5.928H1.52ZM2.48 2.856L3.31205 3.4107C3.88519 2.55099 4.40331 2.32 4.848 2.32V1.32V0.32C3.50069 0.32 2.44015 1.113 1.64795 2.3013L2.48 2.856ZM35.7175 2.344L35.0104 3.05111L35.7175 2.344ZM36.9335 5.16H37.9335V5.10658L37.9278 5.05347L36.9335 5.16ZM35.9095 7.784L36.6569 8.44836L36.6658 8.43837L36.6744 8.42814L35.9095 7.784ZM31.0455 8.232L30.4688 9.04897L30.4853 9.06061L30.5023 9.07157L31.0455 8.232ZM30.9175 2.856L30.0854 2.3013L30.0773 2.31353L30.0695 2.326L30.9175 2.856ZM33.2855 1.32V2.32C33.9506 2.32 34.5093 2.54999 35.0104 3.05111L35.7175 2.344L36.4246 1.63689C35.5604 0.772675 34.4977 0.32 33.2855 0.32V1.32ZM35.7175 2.344L35.0104 3.05111C35.4952 3.53593 35.8294 4.24202 35.9392 5.26653L36.9335 5.16L37.9278 5.05347C37.7816 3.68865 37.3051 2.5174 36.4246 1.63689L35.7175 2.344ZM36.9335 5.16H35.9335C35.9335 5.83252 35.6963 6.48475 35.1446 7.13986L35.9095 7.784L36.6744 8.42814C37.4881 7.46191 37.9335 6.36482 37.9335 5.16H36.9335ZM35.9095 7.784L35.1621 7.11964C34.649 7.69682 34.1015 7.936 33.4775 7.936V8.936V9.936C34.7308 9.936 35.8046 9.40718 36.6569 8.44836L35.9095 7.784ZM33.4775 8.936V7.936C32.7667 7.936 32.146 7.75302 31.5888 7.39243L31.0455 8.232L30.5023 9.07157C31.3956 9.64965 32.3963 9.936 33.4775 9.936V8.936ZM31.0455 8.232L31.6222 7.41503C31.2059 7.12121 30.9575 6.68443 30.9575 5.928H29.9575H28.9575C28.9575 7.21957 29.4344 8.31879 30.4688 9.04897L31.0455 8.232ZM29.9575 5.928H30.9575C30.9575 5.12279 31.2068 4.27995 31.7655 3.386L30.9175 2.856L30.0695 2.326C29.3482 3.48005 28.9575 4.68521 28.9575 5.928H29.9575ZM30.9175 2.856L31.7495 3.4107C32.3227 2.55099 32.8408 2.32 33.2855 2.32V1.32V0.32C31.9382 0.32 30.8776 1.113 30.0854 2.3013L30.9175 2.856ZM64.155 2.344L63.4479 3.05111L64.155 2.344ZM65.371 5.16H66.371V5.10658L66.3653 5.05347L65.371 5.16ZM64.347 7.784L65.0944 8.44836L65.1033 8.43837L65.1119 8.42814L64.347 7.784ZM59.483 8.232L58.9063 9.04897L58.9228 9.06061L58.9398 9.07157L59.483 8.232ZM59.355 2.856L58.5229 2.3013L58.5148 2.31353L58.507 2.326L59.355 2.856ZM61.723 1.32V2.32C62.3881 2.32 62.9468 2.54999 63.4479 3.05111L64.155 2.344L64.8621 1.63689C63.9979 0.772675 62.9352 0.32 61.723 0.32V1.32ZM64.155 2.344L63.4479 3.05111C63.9327 3.53593 64.2669 4.24202 64.3767 5.26653L65.371 5.16L66.3653 5.05347C66.2191 3.68865 65.7426 2.5174 64.8621 1.63689L64.155 2.344ZM65.371 5.16H64.371C64.371 5.83252 64.1338 6.48475 63.5821 7.13986L64.347 7.784L65.1119 8.42814C65.9256 7.46191 66.371 6.36482 66.371 5.16H65.371ZM64.347 7.784L63.5996 7.11964C63.0865 7.69682 62.539 7.936 61.915 7.936V8.936V9.936C63.1683 9.936 64.2421 9.40718 65.0944 8.44836L64.347 7.784ZM61.915 8.936V7.936C61.2042 7.936 60.5835 7.75302 60.0263 7.39243L59.483 8.232L58.9398 9.07157C59.8331 9.64965 60.8338 9.936 61.915 9.936V8.936ZM59.483 8.232L60.0597 7.41503C59.6434 7.12121 59.395 6.68443 59.395 5.928H58.395H57.395C57.395 7.21957 57.8719 8.31879 58.9063 9.04897L59.483 8.232ZM58.395 5.928H59.395C59.395 5.12279 59.6443 4.27995 60.203 3.386L59.355 2.856L58.507 2.326C57.7857 3.48005 57.395 4.68521 57.395 5.928H58.395ZM59.355 2.856L60.187 3.4107C60.7602 2.55099 61.2783 2.32 61.723 2.32V1.32V0.32C60.3757 0.32 59.3151 1.113 58.5229 2.3013L59.355 2.856Z" fill="black" mask="url(#path-1-outside-1_10_527)"/>
</svg>
