<svg width="22" height="30" viewBox="0 0 22 30" fill="none" xmlns="http://www.w3.org/2000/svg">
<path d="M1.624 16.88C0.984 16.3253 0.664 15.664 0.664 14.896C0.664 14.128 1.02667 13.5093 1.752 13.04C7.68267 8.13333 13.144 4.03733 18.136 0.751999C18.5627 0.538666 19.032 0.431999 19.544 0.431999C20.0987 0.431999 20.5893 0.666665 21.016 1.136C21.4853 1.60533 21.72 2.13866 21.72 2.736C21.72 3.33333 21.5493 3.86666 21.208 4.336C20.7813 4.63467 15.9173 8.176 6.616 14.96C7.64 15.728 9.92267 17.3067 13.464 19.696C17.048 22.0853 19.672 23.9627 21.336 25.328C21.6773 25.8827 21.848 26.416 21.848 26.928C21.848 27.3973 21.5707 27.888 21.016 28.4C20.4613 28.8693 19.8853 29.104 19.288 29.104C18.7333 29.104 18.3707 29.04 18.2 28.912C16.408 27.504 13.7413 25.584 10.2 23.152C6.70133 20.72 3.84267 18.6293 1.624 16.88Z" fill="black"/>
</svg>
